{"title":"Skeleton Lake 2012 DVDRip XviD AC3-PRESTiGE","uid":6668714,"size":1501551705,"categoryP":"video","categoryS":"movies","magnet":"?xt=urn:btih:f74220b268a9a5e06874fdcb422ce641cc55111d&amp;dn=Skeleton+Lake+2012+DVDRip+XviD+AC3-PRESTiGE&amp;tr=udp%3A%2F%2Ftracker.openbittorrent.com%3A80&amp;tr=udp%3A%2F%2Fopen.demonii.com%3A1337&amp;tr=udp%3A%2F%2Ftracker.coppersurfer.tk%3A6969&amp;tr=udp%3A%2F%2Fexodus.desync.com%3A6969","seeders":0,"leechers":0,"uploader":null,"files":-1,"time":1315798513,"description":"Skeleton Lake 2012 DVDRip XviD AC3-PRESTiGE\n\n\nHorror / Action\n85 minutes\n\ndirected by Neil Mackay\nBryan Larkin, Hugh and Bob Cymbalski Lambe\n\n &lt;a href=&quot; http://www.imdb.com/title/tt1754506/&quot; rel=&quot;nofollow&quot; target=&quot;_NEW&quot;&gt; http://www.imdb.com/title/tt1754506/&lt;/a&gt;\n\nEnglish:\nA group of six ruthless bank robbers in the woods met someone \neven more dangerous than themselves.It turns out to be a war \nveteran who has an arsenal of weapons and he has no intention of \njust letting the bank robbers go.\n\n\nDutch subs: YES\n\n &lt;a href=&quot; http://www.moviemeter.nl/film/71740&quot; rel=&quot;nofollow&quot; target=&quot;_NEW&quot;&gt; http://www.moviemeter.nl/film/71740&lt;/a&gt;\n\nDutch:\nEen groep van zes meedogenloze bankrovers in het bos iemand ontmoet\nnog gevaarlijker is dan zichzelf. Het blijkt te zijn een oorlogsveteraan,\ndie heeft een arsenaal aan wapens en hij is niet van plan alleen maar \nlaten de bankrovers gaan.\n\n\n\nGeneral\nComplete name                    : Skeleton Lake 2012 DVDRip XviD AC3-PRESTiGE.avi\nFormat                           : AVI\nFormat/Info                      : Audio Video Interleave\nFile size                        : 1.40 GiB\nDuration                         : 1h 25mn\nOverall bit rate                 : 2 344 Kbps\n\nVideo\nID                               : 0\nFormat                           : MPEG-4 Visual\nFormat profile                   : AdvancedSimple@L5\nFormat settings, BVOP            : Yes\nFormat settings, QPel            : No\nFormat settings, GMC             : No warppoints\nFormat settings, Matrix          : Default (H.263)\nCodec ID                         : XVID\nCodec ID/Hint                    : XviD\nDuration                         : 1h 25mn\nBit rate                         : 1 888 Kbps\nWidth                            : 720 pixels\nHeight                           : 336 pixels\nDisplay aspect ratio             : 2.2:1\nFrame rate                       : 23.976 fps\nResolution                       : 24 bits\nColorimetry                      : 4:2:0\nScan type                        : Progressive\nBits/(Pixel*Frame)               : 0.326\nStream size                      : 1.13 GiB (81%)\nWriting library                  : XviD 1.2.1 (UTC 2008-12-04)\n\nAudio\nID                               : 1\nFormat                           : AC-3\nFormat/Info                      : Audio Coding 3\nCodec ID                         : 2000\nDuration                         : 1h 25mn\nBit rate mode                    : Constant\nBit rate                         : 448 Kbps\nChannel(s)                       : 6 channels\nChannel positions                : Front: L C R, Surround: L R, LFE\nSampling rate                    : 48.0 KHz\nStream size                      : 274 MiB (19%)\nAlignment                        : Aligned on interleaves\nInterleave, duration             : 64 ms (1.53 video frames)\nInterleave, preload duration     : 192 ms\n\n\n\n","torrent":{"xt":"urn:btih:f74220b268a9a5e06874fdcb422ce641cc55111d","amp;dn":"Skeleton+Lake+2012+DVDRip+XviD+AC3-PRESTiGE","amp;tr":["udp%3A%2F%2Ftracker.openbittorrent.com%3A80","udp%3A%2F%2Fopen.demonii.com%3A1337","udp%3A%2F%2Ftracker.coppersurfer.tk%3A6969","udp%3A%2F%2Fexodus.desync.com%3A6969"],"infoHash":"f74220b268a9a5e06874fdcb422ce641cc55111d","infoHashBuffer":{"type":"Buffer","data":[247,66,32,178,104,169,165,224,104,116,253,203,66,44,230,65,204,85,17,29]},"announce":[],"urlList":[]}}